<svg width="45" height="45" viewBox="0 0 45 45" fill="none" xmlns="http://www.w3.org/2000/svg">
<g clip-path="url(#clip0_101_20)">
<circle cx="22.5" cy="22.5" r="22.5" fill="white"/>
<path d="M6.77647 11.1793C6.77647 11.0249 6.94395 10.8264 7.27889 10.5837H16.0941C22.0014 10.6278 25.3204 10.694 26.0512 10.7822C26.7211 10.8705 27.3606 10.9808 27.9696 11.1131C28.5785 11.2455 29.1114 11.3888 29.5682 11.5432C30.0249 11.6977 30.4512 11.8631 30.8471 12.0396C31.2429 12.216 31.5779 12.3925 31.8519 12.5689C32.126 12.7454 32.4 12.9219 32.674 13.0983C32.9481 13.2748 33.146 13.4402 33.2678 13.5946C33.3896 13.749 33.5419 13.9035 33.7246 14.0579C33.9073 14.2123 34.0138 14.3556 34.0443 14.488C34.0747 14.6203 34.1356 14.7417 34.227 14.8519L34.364 15.0505C34.5163 15.4475 34.5924 16.01 34.5924 16.7379C34.5924 17.8408 34.3945 18.7011 33.9986 19.3187C32.9329 20.8848 30.8014 21.9105 27.6042 22.3958L26.782 22.5612C26.9952 22.8038 27.2692 23.1237 27.6042 23.5207C27.9391 23.9178 28.609 24.6457 29.6138 25.7045C30.6187 26.7633 31.5474 27.7007 32.4 28.5169C33.2526 29.333 34.1509 30.094 35.0948 30.7999C36.0388 31.5057 36.7848 31.9138 37.3329 32.0241C37.9114 32.1344 38.2007 32.3439 38.2007 32.6527C38.2007 32.8513 38.018 33.0387 37.6526 33.2152H29.2941C29.081 33.0608 27.4671 31.2962 24.4526 27.9213L19.9765 22.9252H18.2408V27.1272C18.3017 29.6859 18.3474 31.0535 18.3779 31.23C18.4692 31.605 18.7737 31.8366 19.2914 31.9248C19.4131 31.9469 19.8394 31.98 20.5702 32.0241C21.3315 32.0241 21.8491 32.1013 22.1232 32.2557C22.3972 32.4983 22.3972 32.7741 22.1232 33.0829L21.8035 33.2152H7.27889C6.9135 33.0829 6.7308 32.8954 6.7308 32.6527C6.7308 32.2336 7.32457 32.0241 8.51211 32.0241C9.76055 31.9579 10.4609 31.7704 10.6131 31.4616C10.7654 31.2851 10.8415 28.0978 10.8415 21.8995C10.8415 15.7012 10.7654 12.4917 10.6131 12.2712C10.4305 11.9844 9.7301 11.8079 8.51211 11.7418C7.35502 11.7418 6.77647 11.5543 6.77647 11.1793ZM17.0076 32.0241C16.9163 31.8697 16.8554 31.7594 16.8249 31.6932C16.7945 31.627 16.764 31.2631 16.7336 30.6013C16.7031 29.9396 16.6727 29.0021 16.6422 27.7889C16.6118 26.5758 16.6118 24.6567 16.6422 22.0318V12.6351L16.8249 12.1719L17.1446 11.7418H12.0747C12.1661 11.8962 12.227 12.0065 12.2574 12.0726C12.2879 12.1388 12.3183 12.5248 12.3488 13.2307C12.3792 13.9365 12.4097 14.885 12.4401 16.0762C12.4706 17.2673 12.4706 19.2084 12.4401 21.8995C12.4401 26.5316 12.4249 29.3109 12.3945 30.2374C12.364 31.1638 12.2727 31.7373 12.1204 31.9579C12.09 31.98 12.0747 32.002 12.0747 32.0241H17.0076ZM26.8734 16.771C26.8734 15.8004 26.7516 14.9843 26.508 14.3226C26.2644 13.6608 25.899 13.1645 25.4118 12.8336C24.9246 12.5028 24.5439 12.2932 24.2699 12.205C23.9958 12.1168 23.6457 12.0175 23.2194 11.9072C23.128 11.9072 22.5495 11.8521 21.4837 11.7418C20.2962 11.7418 19.4131 11.8851 18.8346 12.1719C18.5301 12.3263 18.3626 12.602 18.3322 12.9991C18.3017 13.3961 18.2713 14.8189 18.2408 17.2673V21.734H18.9716C20.281 21.734 21.6664 21.6679 23.128 21.5355C24.5287 21.2708 25.5031 20.8297 26.0512 20.212C26.5993 19.5944 26.8734 18.4474 26.8734 16.771ZM28.472 15.4144C28.472 15.4144 28.472 15.8666 28.472 16.771C28.472 17.6754 28.4111 18.4364 28.2893 19.054C28.1675 19.6716 28.0152 20.0907 27.8325 20.3113C27.6498 20.5319 27.5128 20.7304 27.4215 20.9069C27.3301 21.0833 27.254 21.1936 27.1931 21.2377C27.1931 21.2598 27.2083 21.2708 27.2388 21.2708C27.3606 21.2708 27.8478 21.1605 28.7003 20.9399C31.6235 20.2782 33.0851 18.8996 33.0851 16.8041C33.0851 14.6645 31.319 13.1755 27.7869 12.3373L26.8734 12.1057L27.0561 12.4697C27.4519 12.8006 27.863 13.5174 28.2893 14.6203C28.4111 15.1497 28.472 15.8666 28.472 16.771V15.4144ZM27.1931 25.142C25.5792 23.5097 24.7571 22.6936 24.7266 22.6936C24.5439 22.6936 24.4069 22.7156 24.3156 22.7597C23.7979 22.7597 23.326 22.7928 22.8997 22.859H21.8035L30.0249 32.0241H34.2727L33.6789 31.5278C32.0651 30.2264 29.9031 28.0978 27.1931 25.142Z" fill="black"/>
</g>
<defs>
<clipPath id="clip0_101_20">
<rect width="45" height="45" fill="white"/>
</clipPath>
</defs>
</svg>
