<svg width="24" height="24" viewBox="0 0 24 24" fill="none" xmlns="http://www.w3.org/2000/svg">
<g clip-path="url(#clip0_101_8)">
<circle cx="12" cy="12" r="12" fill="white"/>
<path d="M4.37647 6.15708C4.37647 6.07739 4.45767 5.97492 4.62007 5.84969H8.89412C11.7582 5.87246 13.3675 5.90661 13.7218 5.95215C14.0466 5.99769 14.3566 6.05462 14.6519 6.12292C14.9472 6.19123 15.2055 6.26523 15.427 6.34493C15.6484 6.42462 15.8551 6.51001 16.0471 6.60108C16.239 6.69216 16.4014 6.78324 16.5343 6.87432C16.6671 6.9654 16.8 7.05647 16.9329 7.14755C17.0657 7.23863 17.1617 7.32402 17.2208 7.40371C17.2798 7.4834 17.3536 7.5631 17.4422 7.64279C17.5308 7.72248 17.5825 7.79648 17.5972 7.86479C17.612 7.9331 17.6415 7.99572 17.6858 8.05264L17.7522 8.1551C17.8261 8.36003 17.863 8.65034 17.863 9.02604C17.863 9.59528 17.767 10.0393 17.5751 10.3581C17.0584 11.1664 16.0249 11.6958 14.4747 11.9462L14.0761 12.0316C14.1795 12.1568 14.3123 12.3219 14.4747 12.5269C14.6371 12.7318 14.9619 13.1075 15.4491 13.6539C15.9363 14.2004 16.3866 14.6843 16.8 15.1055C17.2134 15.5267 17.6489 15.9195 18.1066 16.2838C18.5642 16.6481 18.926 16.8588 19.1917 16.9157C19.4722 16.9726 19.6125 17.0808 19.6125 17.2401C19.6125 17.3426 19.5239 17.4394 19.3467 17.5305H15.2941C15.1908 17.4508 14.4083 16.54 12.9467 14.7981L10.7765 12.2195H9.93495V14.3883C9.96447 15.7089 9.98662 16.4147 10.0014 16.5058C10.0457 16.6994 10.1933 16.8189 10.4443 16.8644C10.5033 16.8758 10.71 16.8929 11.0644 16.9157C11.4334 16.9157 11.6844 16.9555 11.8173 17.0352C11.9502 17.1605 11.9502 17.3028 11.8173 17.4621L11.6623 17.5305H4.62007C4.44291 17.4621 4.35432 17.3654 4.35432 17.2401C4.35432 17.0238 4.64221 16.9157 5.21799 16.9157C5.8233 16.8815 6.16286 16.7848 6.23668 16.6254C6.3105 16.5343 6.3474 14.8892 6.3474 11.6901C6.3474 8.49095 6.3105 6.83447 6.23668 6.72062C6.1481 6.57262 5.80853 6.48154 5.21799 6.44739C4.65698 6.44739 4.37647 6.35062 4.37647 6.15708ZM9.33702 16.9157C9.29273 16.836 9.26321 16.7791 9.24844 16.7449C9.23368 16.7108 9.21891 16.5229 9.20415 16.1814C9.18939 15.8398 9.17462 15.356 9.15986 14.7298C9.1451 14.1036 9.1451 13.1132 9.15986 11.7584V6.90847L9.24844 6.66939L9.40346 6.44739H6.94533C6.98962 6.52708 7.01915 6.58401 7.03391 6.61816C7.04867 6.65232 7.06344 6.85155 7.0782 7.21586C7.09296 7.58017 7.10773 8.06972 7.12249 8.6845C7.13725 9.29927 7.13725 10.3011 7.12249 11.6901C7.12249 14.0809 7.11511 15.5154 7.10035 15.9935C7.08558 16.4717 7.04129 16.7677 6.96747 16.8815C6.95271 16.8929 6.94533 16.9043 6.94533 16.9157H9.33702ZM14.1204 9.04312C14.1204 8.54219 14.0614 8.12095 13.9433 7.77941C13.8251 7.43786 13.648 7.18171 13.4118 7.01094C13.1755 6.84016 12.991 6.73201 12.8581 6.68647C12.7253 6.64093 12.5555 6.5897 12.3488 6.53278C12.3045 6.53278 12.024 6.50431 11.5073 6.44739C10.9315 6.44739 10.5033 6.52139 10.2228 6.66939C10.0752 6.74909 9.994 6.8914 9.97924 7.09632C9.96447 7.30125 9.94971 8.03556 9.93495 9.29927V11.6047H10.2893C10.9241 11.6047 11.5958 11.5705 12.3045 11.5022C12.9836 11.3656 13.4561 11.1379 13.7218 10.8191C13.9875 10.5004 14.1204 9.90836 14.1204 9.04312ZM14.8955 8.34295C14.8955 8.34295 14.8955 8.57634 14.8955 9.04312C14.8955 9.50989 14.866 9.90267 14.8069 10.2214C14.7479 10.5402 14.674 10.7565 14.5855 10.8704C14.4969 10.9842 14.4304 11.0867 14.3862 11.1778C14.3419 11.2688 14.305 11.3258 14.2754 11.3485C14.2754 11.3599 14.2828 11.3656 14.2976 11.3656C14.3566 11.3656 14.5928 11.3087 15.0062 11.1948C16.4235 10.8533 17.1322 10.1417 17.1322 9.06019C17.1322 7.95587 16.2759 7.1874 14.5633 6.75478L14.1204 6.63524L14.209 6.82309C14.4009 6.99386 14.6002 7.36386 14.8069 7.9331C14.866 8.20634 14.8955 8.57634 14.8955 9.04312V8.34295ZM14.2754 13.3636C13.493 12.5212 13.0943 12.0999 13.0796 12.0999C12.991 12.0999 12.9246 12.1113 12.8803 12.1341C12.6293 12.1341 12.4005 12.1512 12.1938 12.1853H11.6623L15.6484 16.9157H17.708L17.4201 16.6595C16.6376 15.9878 15.5894 14.8892 14.2754 13.3636Z" fill="black"/>
</g>
<defs>
<clipPath id="clip0_101_8">
<rect width="24" height="24" fill="white"/>
</clipPath>
</defs>
</svg>
